<?xml version="1.0" encoding="UTF-8"?>
<svg version="1.1" xmlns="http://www.w3.org/2000/svg" width="2000" height="757">
<path d="M0 0 C79.2 0 158.4 0 240 0 C254.81164478 50.13172081 254.81164478 50.13172081 261.26797485 73.67938232 C263.37717237 81.3638999 265.50445147 89.04342812 267.6328125 96.72265625 C267.96261958 97.91297203 267.96261958 97.91297203 268.29908943 99.12733459 C273.36668587 117.40621923 278.58199424 135.64219345 283.8125 153.875 C291.86019698 181.93351022 299.81167935 210.01774472 307.6875 238.125 C307.93892887 239.02205406 308.19035774 239.91910812 308.44940567 240.84334564 C310.11717585 246.79367518 311.78373105 252.74434371 313.44921875 258.6953125 C313.66159054 259.45388802 313.87396233 260.21246353 314.09276962 260.99402618 C315.06100784 264.45336376 316.02773975 267.91310168 316.99008179 271.37408447 C317.63776212 273.69945511 318.28989333 276.02359333 318.94766235 278.34613037 C319.36185928 279.82390961 319.36185928 279.82390961 319.78442383 281.33154297 C320.02179764 282.17055145 320.25917145 283.00955994 320.5037384 283.87399292 C321 286 321 286 321 289 C264.24 289 207.48 289 149 289 C146.25114937 277.08831395 144.09460255 265.04396465 142 253 C125.17 252.67 108.34 252.34 91 252 C89.02 264.21 87.04 276.42 85 289 C30.22 289 -24.56 289 -81 289 C-78.70182484 279.80729937 -76.41936864 270.6774823 -73.8046875 261.58203125 C-73.1787008 259.38533818 -72.55272484 257.18864204 -71.92675781 254.99194336 C-71.59502563 253.83145477 -71.26329346 252.67096619 -70.92150879 251.47531128 C-69.03681284 244.8788205 -67.16248212 238.27938774 -65.2890625 231.6796875 C-64.98230843 230.59933259 -64.98230843 230.59933259 -64.6693573 229.49715233 C-58.80238923 208.82759235 -53.02935557 188.13168813 -47.25 167.4375 C-46.69080476 165.43545285 -46.13160064 163.43340817 -45.5723877 161.43136597 C-43.33840504 153.43332402 -41.10454744 145.43524717 -38.87109375 137.4370575 C-35.28073836 124.58041965 -31.68575398 111.72508569 -28.0859375 98.87109375 C-27.73664814 97.62385214 -27.73664814 97.62385214 -27.38030243 96.35141373 C-25.35955314 89.13600015 -23.33833255 81.92071866 -21.31665039 74.70556641 C-20.06247344 70.22954521 -18.80846738 65.75347619 -17.5546875 61.27734375 C-17.35673836 60.57065426 -17.15878922 59.86396477 -16.95484161 59.13586044 C-14.31756727 49.71939736 -11.68928894 40.30047839 -9.0703125 30.87890625 C-8.63212692 29.30363159 -8.63212692 29.30363159 -8.18508911 27.6965332 C-6.88203304 23.01177994 -5.5807451 18.32655544 -4.28369141 13.64013672 C-3.85066599 12.08168348 -3.41756636 10.52325087 -2.984375 8.96484375 C-2.69858078 7.92729698 -2.69858078 7.92729698 -2.40701294 6.86878967 C-1.74060453 4.4773055 -1.11319234 2.22638469 0 0 Z M116 98 C113.38638646 113.54144048 110.77836427 129.08380823 108.17697144 144.62729836 C106.96893599 151.84459002 105.75908165 159.06156791 104.54492188 166.27783203 C103.48650984 172.56844994 102.43153421 178.85963287 101.3806591 185.15151441 C100.82425262 188.48214012 100.26614448 191.8124602 99.70391846 195.14210892 C99.07673055 198.8617389 98.45562135 202.58233624 97.8359375 206.30322266 C97.64892273 207.40373962 97.46190796 208.50425659 97.26922607 209.63812256 C97.10094299 210.65606903 96.93265991 211.6740155 96.75927734 212.72280884 C96.61179047 213.60219934 96.46430359 214.48158985 96.31234741 215.38762856 C95.88128087 218.55443154 95.88128087 218.55443154 96 224 C109.86 224 123.72 224 138 224 C131.07 182.42 124.14 140.84 117 98 C116.67 98 116.34 98 116 98 Z " fill="#1D57BC" transform="translate(954,78)"/>
<path d="M0 0 C0.81984375 0.68707031 1.6396875 1.37414062 2.484375 2.08203125 C20.12746407 17.34597649 29.0736472 35.74090622 30.83040619 58.90755463 C31.47266268 70.61873156 31.24459868 82.3895956 31.20278788 94.11445475 C31.19013768 98.27037801 31.18909892 102.42630533 31.18673706 106.58224487 C31.18056371 114.42276785 31.16421008 122.26323389 31.14403808 130.10373199 C31.11732931 140.71932492 31.10667288 151.33493384 31.09503365 161.95055199 C31.07632563 178.63374382 31.0364527 195.31681562 31 212 C-13.88 212 -58.76 212 -105 212 C-105.33 188.57 -105.66 165.14 -106 141 C-113.48075375 157.91908792 -120.95742419 174.83843015 -128.3125 191.8125 C-128.58830902 192.44843079 -128.86411804 193.08436157 -129.14828491 193.73956299 C-132.22632174 200.68500602 -132.22632174 200.68500602 -134.97265625 207.76220703 C-136.59077151 211.28683738 -139.14497149 211.73358909 -142.6875 213.0625 C-143.35450928 213.31290039 -144.02151855 213.56330078 -144.70874023 213.82128906 C-161.0666738 219.80313638 -177.39265527 222.39129227 -194.8125 222.3125 C-196.78524902 222.30404053 -196.78524902 222.30404053 -198.79785156 222.29541016 C-208.50543822 222.17439482 -217.61609011 221.58650117 -227 219 C-228.08812988 218.70198486 -228.08812988 218.70198486 -229.19824219 218.39794922 C-250.89728438 212.23187401 -270.02278042 201.49929309 -282.0078125 181.6796875 C-290.63654366 165.54143299 -292.52919384 147.28515721 -288.1640625 129.5390625 C-281.49218763 109.25477179 -267.92856802 93.60871757 -248.92529297 83.92724609 C-216.78310718 68.44715205 -175.53988175 68.04159374 -141.984375 79.4921875 C-128.70040453 84.33762391 -115.5767132 91.43259233 -106 102 C-106.4707651 90.72517574 -109.8586436 82.87442668 -118 75 C-137.65761403 57.34146536 -167.11647683 56.87937944 -192 58 C-218.40067822 59.914553 -241.41036042 68.20518021 -265 80 C-265 49.31 -265 18.62 -265 -13 C-253.7199562 -18.6400219 -253.7199562 -18.6400219 -248.99609375 -20.24609375 C-247.9390625 -20.60550049 -246.88203125 -20.96490723 -245.79296875 -21.33520508 C-244.68566406 -21.6989624 -243.57835937 -22.06271973 -242.4375 -22.4375 C-241.25929688 -22.82510498 -240.08109375 -23.21270996 -238.8671875 -23.61206055 C-167.24267147 -46.69373112 -61.10860486 -52.1686423 0 0 Z M-159.7578125 122.4140625 C-162.46588047 125.87153293 -162.52278051 129.04631087 -162.4609375 133.33203125 C-161.61863754 138.20737764 -158.76678348 140.98389223 -155 144 C-149.60300554 147.46580155 -144.46443571 149.64086468 -138 150 C-136.80375 150.0825 -135.6075 150.165 -134.375 150.25 C-126.28926416 150.12366038 -117.1817887 148.40906511 -111 143 C-106.80037414 138.52423436 -104.60453505 135.47583228 -104.73046875 129.15625 C-105.30189958 124.58480332 -107.32230257 121.40303015 -110.765625 118.5234375 C-124.77320958 109.0931345 -148.15873061 109.70502062 -159.7578125 122.4140625 Z " fill="#1D57BB" transform="translate(1968,155)"/>
<path d="M0 0 C32.505 -0.061875 65.01 -0.12375 98.5 -0.1875 C113.83436523 -0.22846802 113.83436523 -0.22846802 129.47851562 -0.27026367 C142.06542969 -0.28381348 142.06542969 -0.28381348 147.97790527 -0.28633118 C152.06356808 -0.28910013 156.14911118 -0.30023725 160.23474121 -0.31672668 C226.95947214 -0.57371554 226.95947214 -0.57371554 257 14 C257.58974609 14.28601074 258.17949219 14.57202148 258.78710938 14.86669922 C267.32609444 19.06438072 274.82728583 23.68175346 282 30 C282.83015625 30.68707031 283.6603125 31.37414062 284.515625 32.08203125 C304.59707534 49.17590385 316.78600316 75.88816222 319 102 C320.89719284 135.60176953 313.06271805 165.99673197 290.62548828 191.56640625 C266.14664462 218.76322802 230.34155829 228.63120041 195 231 C188.2408511 231.29600532 181.479588 231.25551198 174.71557617 231.22705078 C172.76061925 231.22643591 170.80566188 231.22670882 168.85070515 231.2277813 C163.68674928 231.2282268 158.52288898 231.21676393 153.35895538 231.20256042 C148.48624928 231.19104146 143.61356464 231.19062725 138.74084473 231.18920898 C124.55638417 231.17877747 110.37194083 231.150855 96.1875 231.125 C64.445625 231.08375 32.70375 231.0425 0 231 C0 154.77 0 78.54 0 0 Z M123 89 C123 106.49 123 123.98 123 142 C129.06375 142.04125 135.1275 142.0825 141.375 142.125 C144.21424072 142.15231201 144.21424072 142.15231201 147.11083984 142.18017578 C165.31702409 142.30800647 165.31702409 142.30800647 180.72265625 133.43359375 C185.79204269 128.06527543 187.6326977 122.30572071 188.4375 115.0625 C188.1057106 107.5067505 184.45809577 100.102133 179 95 C170.78463099 90.01112905 163.99008041 88.84612412 154.54296875 88.90234375 C153.74201782 88.90335083 152.94106689 88.90435791 152.11584473 88.90539551 C149.13971514 88.91060567 146.16360605 88.92456688 143.1875 88.9375 C136.525625 88.958125 129.86375 88.97875 123 89 Z " fill="#FF575E" transform="translate(873,453)"/>
<path d="M0 0 C32.07166373 -0.61381175 67.01528342 5.26268747 95.640625 20.125 C95.07116174 27.89789887 92.66178973 34.99605346 90.28515625 42.37890625 C89.83064792 43.80899255 89.37682376 45.23929645 88.92362976 46.6697998 C87.95060042 49.73715377 86.9735076 52.80317051 85.99316406 55.86819458 C83.62734167 63.26626204 81.28334958 70.67126064 78.93702316 78.0755291 C78.12333531 80.64257535 77.30884284 83.20936539 76.49429321 85.77613831 C71.19667879 102.47940974 66.0028427 119.21426564 60.8300705 135.95654678 C59.68726861 139.65450052 58.54307413 143.35202323 57.39892578 147.04956055 C56.94966259 148.5015298 56.50040312 149.95350021 56.05114746 151.4054718 C55.83106522 152.1167605 55.61098297 152.8280492 55.38423157 153.56089211 C54.72859433 155.68002585 54.07307976 157.79919749 53.41760254 159.91838074 C49.55863236 172.39413708 45.69573178 184.86865243 41.8125 197.33688354 C41.16241504 199.42581759 40.51346685 201.51510578 39.86572266 203.60476685 C38.99543499 206.41191007 38.12133133 209.2178344 37.24609375 212.0234375 C36.99309006 212.84250076 36.74008636 213.66156403 36.47941589 214.50544739 C34.75493007 220.01069493 34.75493007 220.01069493 33.640625 221.125 C32.28967518 221.21768999 30.93395409 221.24247326 29.57983398 221.23852539 C28.70693726 221.23840454 27.83404053 221.23828369 26.93469238 221.23815918 C26.01136108 221.23304321 25.08802979 221.22792725 24.13671875 221.22265625 C23.2924231 221.22164917 22.44812744 221.22064209 21.57824707 221.21960449 C18.41152598 221.2143557 15.24482419 221.20039456 12.078125 221.1875 C5.00375 221.166875 -2.070625 221.14625 -9.359375 221.125 C-9.359375 247.525 -9.359375 273.925 -9.359375 301.125 C-53.909375 301.125 -98.459375 301.125 -144.359375 301.125 C-144.359375 274.725 -144.359375 248.325 -144.359375 221.125 C-154.259375 221.125 -164.159375 221.125 -174.359375 221.125 C-173.22606905 217.60279865 -172.09262869 214.08071942 -170.95458984 210.56005859 C-169.91285394 207.33648954 -168.87641912 204.1112688 -167.84228516 200.88525391 C-164.64772022 190.95976249 -161.31722323 181.09456136 -157.84765625 171.26171875 C-146.98869825 140.7179822 -146.98869825 140.7179822 -143.44482422 108.73535156 C-142.57122574 82.04816616 -126.72130074 55.36836639 -107.91796875 37.3359375 C-77.1539447 10.75206328 -39.8039805 1.48107834 0 0 Z M-3.609375 113.3125 C-7.96516409 118.72812013 -9.359375 124.26568336 -9.359375 131.125 C13.740625 131.125 36.840625 131.125 60.640625 131.125 C59.53898985 122.31191878 58.29569762 117.8927296 51.640625 112.125 C36.05926622 100.63502646 10.61593641 98.28918332 -3.609375 113.3125 Z " fill="#1D57BC" transform="translate(1596.359375,65.875)"/>
<path d="M0 0 C0.92725891 0.00182281 1.85451782 0.00364563 2.80987549 0.00552368 C16.17977326 0.04979678 29.21464036 0.38803728 42.3125 3.3125 C43.14249512 3.48942383 43.97249023 3.66634766 44.82763672 3.84863281 C66.55081864 8.56203822 86.83952588 16.27507225 104.3125 30.3125 C105.14136719 30.97636719 105.97023438 31.64023437 106.82421875 32.32421875 C124.60785123 47.42774335 135.80921259 68.08105706 138.3125 91.3125 C138.93243857 105.42550475 139.35692198 119.66257583 135.3125 133.3125 C134.9721875 134.48425781 134.631875 135.65601563 134.28125 136.86328125 C126.52606196 160.83624428 108.1782597 179.74775756 86.20166016 191.43505859 C70.2891118 199.40036373 52.87019247 204.56797457 35.3125 207.3125 C34.33651855 207.4669458 34.33651855 207.4669458 33.34082031 207.62451172 C-10.43533709 214.21906375 -63.85358579 209.7604088 -100.5703125 182.93701172 C-120.632637 167.45481517 -134.12616814 146.61452052 -137.6875 121.3125 C-141.05552487 94.56411643 -136.55848645 67.6852067 -119.8125 46 C-118.46185745 44.41639779 -117.08627989 42.85374822 -115.6875 41.3125 C-114.95015625 40.49394531 -114.2128125 39.67539062 -113.453125 38.83203125 C-102.67175623 27.46931417 -89.92339509 19.61602515 -75.6875 13.3125 C-75.06182129 13.03422363 -74.43614258 12.75594727 -73.79150391 12.46923828 C-50.57227051 2.40007583 -25.0422995 -0.1021849 0 0 Z M-30.6875 92.3125 C-34.45862861 97.42177102 -35.21268409 102.01029091 -34.6875 108.3125 C-32.71511885 114.45539792 -29.15313055 118.92038675 -23.6875 122.3125 C-10.13681415 128.558987 5.86440882 129.51410256 19.94140625 124.34765625 C26.95495281 121.24329958 31.27314285 117.24021706 34.22265625 110.11328125 C35.91702719 104.29966119 35.19840242 99.60977725 32.3125 94.3125 C27.48606472 87.55282407 20.94045482 84.79406408 13.1015625 82.73046875 C-1.85643989 80.48886335 -19.38501624 81.0681267 -30.6875 92.3125 Z " fill="#FF575E" transform="translate(1803.6875,483.6875)"/>
<path d="M0 0 C5.45166622 0.5865215 10.63068245 1.53777376 15.92871094 2.9675293 C16.68442886 3.16692108 17.44014679 3.36631287 18.21876526 3.57174683 C20.72529055 4.23435617 23.22979256 4.90430656 25.734375 5.57421875 C27.5310608 6.05059858 29.32787817 6.52648243 31.12481689 7.00190735 C34.97868706 8.0225225 38.83170528 9.04627214 42.68408203 10.07250977 C48.83355822 11.71054562 54.98492622 13.34139092 61.13671875 14.97070312 C63.2376713 15.52718964 65.33862345 16.08367769 67.4395752 16.64016724 C69.00911705 17.05587667 69.00911705 17.05587667 70.61036682 17.47998428 C73.81553241 18.32916185 77.02051884 19.17901264 80.22546387 20.02902222 C98.77295297 24.94711307 117.33334008 29.81505621 135.89831543 34.66665649 C144.52651553 36.92148228 153.15403997 39.17888929 161.78125 41.4375 C162.64377129 41.66330561 163.50629257 41.88911121 164.39495087 42.12175941 C186.73143562 47.97051517 209.05548403 53.86638735 231.38006592 59.76037598 C259.57854648 67.20497091 287.78470394 74.61939773 316 82 C349.24109094 90.69569433 382.4715295 99.43126282 415.69067383 108.21044922 C419.45131188 109.20418769 423.2119771 110.19782331 426.97265625 111.19140625 C427.89479731 111.43507179 428.81693836 111.67873734 429.76702309 111.92978668 C442.37605325 115.26088115 454.99097399 118.56861153 467.61128616 121.85669136 C472.6115027 123.16034851 477.61059214 124.46832188 482.60965157 125.7764082 C486.4830051 126.78944803 490.35710688 127.79938936 494.23327637 128.80160522 C525.81728705 136.97073322 552.25223942 144.89562773 569.80859375 174.69921875 C572.38390854 179.15509652 574.89569965 183.6454227 577.39892578 188.14208984 C579.05742044 191.10249522 580.74123772 194.04711288 582.43359375 196.98828125 C582.98877686 197.9532251 583.54395996 198.91816895 584.1159668 199.91235352 C585.19093772 201.77913778 586.26660215 203.6455229 587.34301758 205.51147461 C587.82279053 206.34815674 588.30256348 207.18483887 588.796875 208.046875 C589.22323242 208.78776367 589.64958984 209.52865234 590.08886719 210.29199219 C591 212 591 212 591 213 C582.72091748 212.42595126 574.50643828 211.64760156 566.27784729 210.5736084 C565.17273471 210.43209618 564.06762214 210.29058396 562.9290213 210.1447835 C559.26289918 209.67452175 555.59740043 209.19957321 551.93188477 208.72460938 C549.28499395 208.38410518 546.63807052 208.04386416 543.99110413 207.70394897 C538.29719613 206.97222609 532.60360283 206.23809529 526.91021919 205.50230408 C518.60257193 204.4286631 510.29444415 203.35877825 501.98620366 202.28973871 C488.40233404 200.54177207 474.81884513 198.79086502 461.2355957 197.03808594 C448.22243891 195.35887823 435.20911955 193.68094045 422.19555664 192.00488281 C421.00550894 191.85161208 421.00550894 191.85161208 419.79141987 191.69524497 C415.80078025 191.18128455 411.81013694 190.66735287 407.81949151 190.15343761 C399.90242579 189.13387395 391.98537989 188.11415648 384.06834412 187.09436035 C383.29444662 186.99467479 382.52054913 186.89498922 381.72320019 186.79228288 C372.00031657 185.53985003 362.27749918 184.28690491 352.55480117 183.03303194 C349.71551407 182.66686964 346.87620697 182.30086311 344.03688365 181.93498182 C337.7802921 181.12862097 331.52380865 180.32147283 325.2679248 179.50963733 C321.83553406 179.06425944 318.40304048 178.61967832 314.9704895 178.17553711 C314.28981038 178.08745303 313.60913126 177.99936895 312.90782549 177.90861565 C303.17081419 176.65018164 293.42958805 175.42924461 283.68502456 174.23075247 C278.06627746 173.53955048 272.44868906 172.83912791 266.8313214 172.13681212 C262.99661828 171.65811586 259.1614309 171.18464853 255.32450211 170.72410488 C235.41375763 168.33127894 217.01854483 165.57177242 198.875 156.5 C197.82006348 155.98155518 196.76512695 155.46311035 195.67822266 154.92895508 C177.23242898 145.75010132 159.78821067 135.21416703 142.66455078 123.77832031 C140.16649277 122.11111722 137.66107003 120.45577824 135.15234375 118.8046875 C118.40008504 107.75483202 102.2462845 96.04496157 86.34570312 83.80224609 C84.314502 82.24163757 82.27708593 80.69001809 80.234375 79.14453125 C73.68025488 74.17459602 67.35367236 68.99018895 61.109375 63.640625 C58.32785189 61.26281619 55.4842365 58.97150549 52.625 56.6875 C2.51543904 15.72149398 2.51543904 15.72149398 0 0 Z " fill="#FF575E" transform="translate(2,99)"/>
<path d="M0 0 C35.31 0 70.62 0 107 0 C107.375 48.9375 107.375 48.9375 107.47802734 64.35131836 C107.51796636 68.93764135 107.51796636 68.93764135 107.56045532 73.52394104 C107.57806276 75.55601802 107.59190176 77.5881299 107.60269165 79.62025452 C107.61984827 82.71044534 107.64921572 85.80031196 107.68115234 88.89038086 C107.68441056 90.23300822 107.68441056 90.23300822 107.6877346 91.60275936 C107.77741279 98.38724578 108.15629712 105.11153215 111.875 110.9375 C115.41115168 114.36964722 118.28419361 115.30424522 123.1875 115.375 C124.06792969 115.40335938 124.94835938 115.43171875 125.85546875 115.4609375 C130.14008441 114.9770573 130.14008441 114.9770573 138 111 C138.33 74.37 138.66 37.74 139 0 C174.31 0 209.62 0 246 0 C246 63.03 246 126.06 246 191 C210.69 191 175.38 191 139 191 C138.67 167.24 138.34 143.48 138 119 C133.00338534 134.643887 133.00338534 134.643887 128.00927734 150.28857422 C126.6731605 154.47476781 125.32650182 158.65742751 123.97558594 162.83886719 C122.7194489 166.73063944 121.49802015 170.62982443 120.31347656 174.54394531 C119.805372 176.17774478 119.29723627 177.81153456 118.7890625 179.4453125 C118.57704193 180.17813446 118.36502136 180.91095642 118.14657593 181.66598511 C117.08764585 185.01035471 116.30896433 186.7671357 113.47143555 188.90576172 C112.65586182 189.26686035 111.84028809 189.62795898 111 190 C110.23042969 190.350625 109.46085937 190.70125 108.66796875 191.0625 C84.91024243 200.04179814 54.52525763 201.50896024 31 191 C16.94298462 183.92321714 7.45883297 173.77153163 2.22265625 158.7734375 C-0.36157084 149.30422584 -0.14012671 139.4828611 -0.11352539 129.75952148 C-0.11324284 128.33949282 -0.11340258 126.91946401 -0.1139679 125.49943542 C-0.11425322 121.66949902 -0.10839949 117.83959433 -0.10139394 114.00966525 C-0.09511612 109.99782395 -0.09455311 105.98598181 -0.09336853 101.97413635 C-0.09026822 94.38832892 -0.08207245 86.802536 -0.07201904 79.21673495 C-0.05872032 68.95812991 -0.05334749 58.69952087 -0.04751682 48.44090939 C-0.03813162 32.29392873 -0.01820403 16.1469787 0 0 Z " fill="#FF575E" transform="translate(1200,493)"/>
<path d="M0 0 C44.22 0 88.44 0 134 0 C134 95.37 134 190.74 134 289 C89.78 289 45.56 289 0 289 C0 193.63 0 98.26 0 0 Z " fill="#1D57BB" transform="translate(1283,78)"/>
<path d="M0 0 C13.96449377 1.39559276 27.8764186 3.08805556 41.79150391 4.90722656 C44.02568798 5.19756013 46.25989852 5.4876901 48.494133 5.77763557 C54.55138873 6.56429365 60.60827085 7.35379481 66.66509104 8.14379835 C72.48290115 8.90215195 78.30100055 9.65827736 84.11909364 10.41445641 C97.3001633 12.12769314 110.48084316 13.84391477 123.66139019 15.56116712 C133.73877788 16.87410983 143.81625232 18.18638468 153.89379883 19.49810791 C154.96475566 19.63750825 154.96475566 19.63750825 156.05734798 19.77972476 C160.3913054 20.34384812 164.7252656 20.90795015 169.05922669 21.47204527 C174.84735495 22.22541367 180.63547954 22.97881027 186.42360207 23.7322226 C187.87015554 23.92051347 189.31670919 24.10880297 190.76326302 24.29709108 C200.17346669 25.52196111 209.58362187 26.74720294 218.99373555 27.97276413 C251.85729057 32.25284791 284.72216367 36.52246934 317.59001625 40.769454 C324.72212572 41.69105912 331.85410866 42.61363724 338.98599243 43.5369873 C339.95687825 43.66268254 340.92776407 43.78837778 341.92807066 43.91788197 C345.75178877 44.41294281 349.57550194 44.90804174 353.39919877 45.40326691 C364.21124318 46.80357753 375.0236831 48.20072766 385.83686602 49.59222043 C392.47016506 50.44613522 399.10291921 51.30419638 405.73524892 52.16560733 C409.47409913 52.65106986 413.21315914 53.13470459 416.95293808 53.61296463 C420.94536984 54.12353901 424.93657598 54.64313969 428.92773438 55.16357422 C430.0592222 55.30673695 431.19071003 55.44989967 432.35648537 55.59740067 C450.36908828 57.97097861 465.65205109 61.06411222 477.328125 75.97265625 C486.46269744 88.72392526 494.25404737 103.42857327 500 118 C469.01027382 119.12964397 438.02054378 120.25918174 407.03080846 121.3885751 C403.35663921 121.52247703 399.68246998 121.65637984 396.00830078 121.7902832 C395.27696362 121.81693643 394.54562647 121.84358965 393.79212758 121.87105054 C382.01286382 122.30034212 370.23360267 122.72970532 358.45434251 123.15909588 C346.33143705 123.60101173 334.2085287 124.04284859 322.08561778 124.48461491 C315.29168808 124.73219208 308.49775964 124.97980346 301.70383453 125.22750664 C295.28528348 125.46152024 288.86672883 125.69543484 282.44817162 125.92927933 C280.11527313 126.01428921 277.78237587 126.09933269 275.44948006 126.18441582 C267.96635766 126.45732024 260.48319782 126.72917157 253 127 C251.78275584 127.04411176 250.56551168 127.08822352 249.31138134 127.133672 C245.52708271 127.27062013 241.74276212 127.4069461 237.95843506 127.54310608 C236.79968943 127.58508289 235.6409438 127.6270597 234.44708467 127.67030853 C159.11973707 130.37189746 93.05566665 80.56295333 37 35 C35.68322266 33.94425781 35.68322266 33.94425781 34.33984375 32.8671875 C28.56917111 28.20844475 23.01948418 23.37020021 17.56640625 18.34375 C15.33175424 16.30297191 13.05793158 14.33162793 10.75 12.375 C6.78416571 8.93357355 3.23182163 5.14077146 0 1 C0 0.67 0 0.34 0 0 Z " fill="#FF575E" transform="translate(132,272)"/>
<path d="M0 0 C-0.53598496 7.35041468 -1.52302952 14.45683661 -3.00952148 21.67211914 C-3.21127991 22.67513062 -3.41303833 23.67814209 -3.62091064 24.71154785 C-4.28160763 27.98733844 -4.95095042 31.26128614 -5.62109375 34.53515625 C-6.08599788 36.82386803 -6.55059779 39.11264162 -7.01490784 41.401474 C-7.98521197 46.17724204 -8.95995957 50.95207647 -9.93774414 55.72631836 C-11.19236542 61.85468435 -12.43456623 67.98549358 -13.67336941 74.11707401 C-14.62793123 78.8337711 -15.58958392 83.54900084 -16.55336189 88.26382256 C-17.01461458 90.52525754 -17.47349725 92.78717724 -17.92999077 95.04957771 C-18.56638888 98.19874143 -19.21242874 101.34577322 -19.86108398 104.49243164 C-20.0486879 105.43108566 -20.23629181 106.36973969 -20.42958069 107.33683777 C-20.60758209 108.19034821 -20.7855835 109.04385864 -20.96897888 109.92323303 C-21.1206977 110.66665986 -21.27241652 111.41008669 -21.42873287 112.1760416 C-22 114 -22 114 -24 116 C-24.55945312 115.61328125 -25.11890625 115.2265625 -25.6953125 114.828125 C-41.64487003 104.46860532 -63.24840895 102.32911222 -81.78515625 105.75390625 C-90.12273158 107.6093452 -99.50863644 110.01823068 -105 117 C-105.61795244 120.38660305 -105.61795244 120.38660305 -105.54589844 124.24707031 C-105.55629276 124.98105419 -105.56668709 125.71503807 -105.57739639 126.47126389 C-105.6064739 128.84045351 -105.60846364 131.20877474 -105.609375 133.578125 C-105.62337322 135.04347522 -105.63915079 136.50880956 -105.65673828 137.97412109 C-105.70938743 143.39924766 -105.72761335 148.82466415 -105.75 154.25 C-105.8325 166.3775 -105.915 178.505 -106 191 C-141.31 191 -176.62 191 -213 191 C-213 127.97 -213 64.94 -213 0 C-177.69 0 -142.38 0 -106 0 C-105.67 34.65 -105.34 69.3 -105 105 C-100.27494477 81.18972594 -100.27494477 81.18972594 -95.57739258 57.37402344 C-94.64782715 52.73095703 -94.64782715 52.73095703 -94.20707703 50.54595947 C-93.90687433 49.04573115 -93.61151109 47.54452872 -93.32023621 46.0425415 C-89.92157049 28.55769252 -85.18031475 14.29159606 -69.890625 3.78515625 C-49.70441227 -8.68119404 -21.0816617 -12.22736379 0 0 Z " fill="#FF575E" transform="translate(1670,493)"/>
<path d="M0 0 C5.00413693 3.80749549 7.76734048 8.87316023 9 15 C9.08974234 16.70561585 9.12667222 18.41436027 9.1276505 20.12233514 C9.13066647 21.16537892 9.13368244 22.2084227 9.1367898 23.28307387 C9.13413559 25.00336548 9.13413559 25.00336548 9.13142776 26.75841045 C9.1334804 27.98102364 9.13553303 29.20363682 9.13764787 30.46329889 C9.14234591 33.87365005 9.1425404 37.28394874 9.14087028 40.69429928 C9.14014043 44.39824886 9.14515917 48.1021913 9.1494453 51.80613786 C9.15703387 59.15997789 9.15921879 66.51381067 9.15977435 73.86765421 C9.16068714 82.67297725 9.16735215 91.47829356 9.17412117 100.28361371 C9.19019207 121.56731616 9.19608561 142.85101791 9.20086992 164.13472534 C9.20320469 174.20018689 9.2068072 184.26564786 9.2105653 194.33110896 C9.22340151 228.77563817 9.23412085 263.22016706 9.2375679 297.6646986 C9.23778954 299.82750506 9.23801132 301.99031152 9.23823325 304.15311797 C9.23845389 306.3211946 9.23867438 308.48927123 9.2388947 310.65734786 C9.23933726 315.00699818 9.23978437 319.35664851 9.24023438 323.70629883 C9.24034377 324.78476172 9.24045316 325.86322461 9.24056586 326.97436819 C9.24419731 361.95154575 9.26012033 396.92870259 9.28342474 431.90587222 C9.30800956 468.87226872 9.32174011 505.83865338 9.32293582 542.8050583 C9.32310728 546.86146152 9.32332271 550.91786474 9.32357025 554.97426796 C9.3236539 556.47250544 9.3236539 556.47250544 9.32373925 558.00101035 C9.32489085 574.08885503 9.33592206 590.1766785 9.35045731 606.26451601 C9.3648093 622.4287847 9.36806663 638.59302613 9.36001733 654.75729945 C9.355555 664.36468062 9.35944577 673.97197391 9.37525584 683.57934357 C9.38498758 689.99469826 9.38384489 696.4099912 9.37381961 702.82534529 C9.36841452 706.48210052 9.36775928 710.13868667 9.38032833 713.79542806 C9.39375494 717.73449412 9.38398299 721.67330891 9.3719368 725.61238384 C9.38332959 727.3151167 9.38332959 727.3151167 9.39495254 729.05224821 C9.34307103 736.87781203 8.6879105 743.76072325 3.5625 749.9375 C0.26396129 752.5924214 -1.66291585 753.82559772 -5.875 754.375 C-9.92918752 753.8884975 -11.86208456 752.59219101 -15 750 C-18.56909212 745.27336449 -20.12400994 741.845584 -20.12880117 735.96224052 C-20.13207336 734.9125873 -20.13534555 733.86293408 -20.13871691 732.78147319 C-20.13723328 731.62207318 -20.13574966 730.46267318 -20.13422108 729.26813984 C-20.13657331 728.03625066 -20.13892554 726.80436148 -20.14134905 725.53514233 C-20.14688608 722.09412169 -20.14790926 718.6531519 -20.14707164 715.21213031 C-20.14724079 711.47668567 -20.15314298 707.74124947 -20.1583125 704.00580901 C-20.16765246 696.58727818 -20.17156289 689.16875333 -20.17383147 681.75021736 C-20.17678989 672.86831891 -20.18548515 663.98642841 -20.19424575 655.10453412 C-20.21510536 633.63479882 -20.22556211 612.16506212 -20.23437535 590.69531904 C-20.23857948 580.54272372 -20.24380176 570.39012898 -20.24905988 560.23753416 C-20.26695089 525.49792815 -20.28194806 490.75832197 -20.28938007 456.01871204 C-20.28985483 453.83712543 -20.29033072 451.65553882 -20.29080774 449.47395222 C-20.29104411 448.39206022 -20.29128049 447.31016822 -20.29152403 446.19549161 C-20.29272525 440.71390521 -20.29394069 435.23231882 -20.29516602 429.75073242 C-20.29540617 428.66288683 -20.29564632 427.57504124 -20.29589374 426.45423063 C-20.30378918 391.17236285 -20.32722563 355.89052866 -20.35972196 320.60867555 C-20.39400009 283.32435624 -20.41372932 246.0400566 -20.41702431 208.75572127 C-20.41744187 204.66477596 -20.41792143 200.57383066 -20.41844749 196.48288536 C-20.41857069 195.47554755 -20.41869388 194.46820973 -20.4188208 193.43034653 C-20.42115529 177.20183644 -20.43682905 160.9733653 -20.45728934 144.7448691 C-20.47751962 128.44046505 -20.48303791 112.1361079 -20.47351871 95.83169363 C-20.46829291 86.13965321 -20.47423201 76.44776864 -20.49605338 66.75575057 C-20.50952344 60.28520805 -20.50851818 53.81477326 -20.49565142 47.34422976 C-20.48872942 43.65507702 -20.48817117 39.96622301 -20.50521151 36.27709649 C-20.52341 32.30494516 -20.51073979 28.3332355 -20.49498463 24.36106586 C-20.50520683 23.21337169 -20.51542904 22.06567751 -20.52596101 20.88320473 C-20.46714051 14.12552682 -19.62887012 9.74967089 -16 4 C-10.6498343 -0.968011 -7.02081799 -1.76433034 0 0 Z " fill="#1D57BB" transform="translate(791,2)"/>
<path d="M0 0 C3.74369621 3.82088583 6.25514295 8.31329241 8.89453125 12.93359375 C9.71789737 14.32212053 10.54216893 15.71011067 11.3671875 17.09765625 C12.2113925 18.54194314 13.05385132 19.98725217 13.89453125 21.43359375 C14.30501709 22.1282373 14.71550293 22.82288086 15.13842773 23.53857422 C16.13678564 25.29394299 17.02501888 27.11096206 17.89453125 28.93359375 C17.56453125 29.92359375 17.23453125 30.91359375 16.89453125 31.93359375 C15.12873554 32.65292263 15.12873554 32.65292263 12.77522278 33.14683533 C11.88336651 33.34078164 10.99151024 33.53472795 10.07262802 33.73455143 C9.08291126 33.93550639 8.0931945 34.13646135 7.07348633 34.34350586 C6.0325948 34.56579329 4.99170326 34.78808073 3.91926956 35.01710415 C0.4200809 35.76103625 -3.08279935 36.48585001 -6.5859375 37.2109375 C-9.06572458 37.73430487 -11.54525787 38.25887595 -14.02455139 38.78457642 C-19.33699337 39.90836214 -24.65101642 41.0241355 -29.9666748 42.13259888 C-37.59125815 43.72259982 -45.21275874 45.32696472 -52.83341813 46.93565595 C-61.97742468 48.86584035 -71.12196682 50.7934496 -80.26821899 52.71296692 C-80.96847533 52.85993301 -81.66873166 53.00689909 -82.39020789 53.1583187 C-83.08877005 53.3049281 -83.7873322 53.4515375 -84.50706291 53.60258961 C-100.98500556 57.0609498 -117.45591543 60.55136813 -133.921875 64.06640625 C-135.57795556 64.41981299 -135.57795556 64.41981299 -137.26749229 64.78035927 C-142.5955395 65.9173853 -147.92349301 67.05484952 -153.25137329 68.19265747 C-162.04611225 70.0707545 -170.84105976 71.94785612 -179.63717461 73.81949997 C-181.35038277 74.18428214 -183.06348669 74.54955433 -184.77647591 74.91536331 C-187.09454174 75.41036901 -189.41294746 75.90375086 -191.73144531 76.39672852 C-193.02004456 76.67138443 -194.3086438 76.94604034 -195.6362915 77.22901917 C-255.00432512 89.28640473 -329.06143013 49.93829524 -377.79296875 19.43359375 C-378.60169434 18.92892578 -379.41041992 18.42425781 -380.24365234 17.90429688 C-380.98566895 17.42927734 -381.72768555 16.95425781 -382.4921875 16.46484375 C-383.14405029 16.04783203 -383.79591309 15.63082031 -384.4675293 15.20117188 C-386.10546875 13.93359375 -386.10546875 13.93359375 -388.10546875 10.93359375 C-385.44545928 9.60358901 -383.28293256 9.69368977 -380.30466747 9.56066799 C-378.44013653 9.47407993 -378.44013653 9.47407993 -376.5379383 9.3857426 C-375.14575369 9.32571897 -373.75356542 9.2657803 -372.3613739 9.20591736 C-370.89221672 9.13944423 -369.42307747 9.07257363 -367.95395499 9.00533777 C-363.90198465 8.82106743 -359.84977945 8.6425042 -355.7975148 8.46484029 C-351.43242403 8.2724807 -347.06756904 8.07490507 -342.7026825 7.87797546 C-334.14286202 7.4926277 -325.58283079 7.11216957 -317.02271845 6.73336666 C-307.05216483 6.29198637 -297.08182012 5.8459726 -287.11147998 5.39980061 C-269.31268767 4.6034818 -251.51369841 3.81165239 -233.71459961 3.0222168 C-216.45304399 2.25662079 -199.19164967 1.48750804 -181.93041992 0.71459961 C-163.14074058 -0.12674269 -144.35098227 -0.96627839 -125.56107646 -1.8025493 C-123.55476907 -1.89184366 -121.54846169 -1.98113811 -119.54215431 -2.07043266 C-118.55502207 -2.11436344 -117.56788983 -2.15829422 -116.55084449 -2.20355623 C-109.60684319 -2.51269347 -102.66289703 -2.82305078 -95.71896935 -3.13383675 C-87.24380703 -3.51309638 -78.76855192 -3.89020155 -70.293175 -4.26463611 C-65.97159119 -4.45560503 -61.65005238 -4.64746945 -57.32862091 -4.84185791 C-53.36513938 -5.02011472 -49.40154674 -5.19565383 -45.43785224 -5.36910873 C-44.01099699 -5.43200766 -42.58418327 -5.49585835 -41.15741988 -5.56080783 C-8.56196494 -7.04208951 -8.56196494 -7.04208951 0 0 Z " fill="#FF575E" transform="translate(640.10546875,414.06640625)"/>
<path d="M0 0 C1.16402344 -0.01160156 1.16402344 -0.01160156 2.3515625 -0.0234375 C6.74504649 1.6743395 8.3139317 5.55731978 10.625 9.5 C11.6822931 11.24427863 12.74091477 12.98775257 13.80078125 14.73046875 C14.33268066 15.61395996 14.86458008 16.49745117 15.41259766 17.40771484 C17.34108711 20.55700753 19.36878779 23.63122817 21.41381836 26.70556641 C32.04533401 42.72057427 39.39833359 57.52620043 36.5234375 77.2734375 C31.76967875 96.72063239 20.10709653 115.11726738 10.4140625 132.45263672 C9.04606852 134.91700984 7.70620133 137.39450135 6.375 139.87890625 C-0.48897554 152.62249389 -8.03995429 164.22150115 -17.9921875 174.81640625 C-20.06448569 177.01739747 -20.06448569 177.01739747 -22.05078125 179.58203125 C-27.00563083 185.72842782 -33.57106142 190.26630624 -39.875 194.9375 C-40.54184814 195.43459473 -41.20869629 195.93168945 -41.89575195 196.44384766 C-46.75856328 200 -46.75856328 200 -49 200 C-49.15419945 187.14454515 -48.74645268 174.36109126 -48.10449982 161.52235794 C-47.93625706 158.15071461 -47.77386624 154.77883166 -47.61297607 151.40682983 C-47.38347301 146.60007665 -47.15247129 141.79340004 -46.92007446 136.98678589 C-44.30803193 82.935173 -44.30803193 82.935173 -43.27758789 28.83618164 C-43.27035706 27.75785065 -43.26312622 26.67951965 -43.25567627 25.56851196 C-43.24458901 23.63012762 -43.24223439 21.69165974 -43.25140381 19.75326538 C-43.23092179 15.42478469 -43.15758498 11.88604496 -41 8 C-30.43636949 0.83897048 -12.56069226 -0.48310355 0 0 Z " fill="#FF575E" transform="translate(660,458)"/>
<path d="M0 0 C2.56392554 39.81206596 -14.56120058 85.54770753 -40.28125 115.671875 C-42.47979455 118.15653152 -44.72486815 120.5854907 -47 123 C-47.62261719 123.68707031 -48.24523437 124.37414062 -48.88671875 125.08203125 C-59.91275432 136.80152817 -76.18612043 146.51332535 -92 150 C-94.20263672 149.54467773 -94.20263672 149.54467773 -96 149 C-92.42630042 133.93317373 -88.84506508 118.86815331 -85.2550087 103.80521679 C-83.58801716 96.81018924 -81.92343691 89.81460473 -80.26464844 82.81762695 C-78.81776519 76.71451982 -77.36623953 70.61253826 -75.90927672 64.5118292 C-75.13897272 61.285651 -74.37159925 58.05882251 -73.60840607 54.8309536 C-72.75315411 51.21549419 -71.88971093 47.60208021 -71.02441406 43.98901367 C-70.77697449 42.9345253 -70.52953491 41.88003693 -70.27459717 40.79359436 C-67.52259236 29.38381001 -64.93058837 18.67120468 -54.95703125 11.5390625 C-40.42583557 3.28554344 -16.36217532 0 0 0 Z " fill="#FF575E" transform="translate(602,471)"/>
<path d="M0 0 C-1.46272663 27.79180601 -20.57450361 52.18091834 -40.15087891 70.35791016 C-53.74410471 82.42921155 -71.72462666 91.56663738 -90 93 C-89.33106234 88.40112331 -87.57272026 84.40296036 -85.68359375 80.19921875 C-85.18147118 79.0681646 -85.18147118 79.0681646 -84.66920471 77.91426086 C-83.95795439 76.31536091 -83.24418446 74.71757971 -82.52807617 73.12084961 C-81.45942524 70.73642072 -80.39995758 68.3480838 -79.34179688 65.95898438 C-75.93072836 58.2915278 -72.42687223 50.6774111 -68.703125 43.15625 C-68.38512436 42.5087529 -68.06712372 41.8612558 -67.73948669 41.19413757 C-64.00956638 33.7644746 -59.08875976 27.63210277 -53 22 C-52.071875 21.071875 -51.14375 20.14375 -50.1875 19.1875 C-38.08303506 8.99979415 -15.64981325 0 0 0 Z " fill="#FF575E" transform="translate(521,490)"/>
</svg>
